REM MD5 93f683c16ad0861720e13de5ca5a4b9f
FILE "Official U.S. PlayStation Magazine Demo Disc 38 (USA).bin" BINARY
  TRACK 01 MODE2/2352
    INDEX 01 00:00:00
  TRACK 02 AUDIO
    INDEX 00 54:06:08
    INDEX 01 54:08:08
  TRACK 03 AUDIO
    INDEX 00 55:18:27
    INDEX 01 55:20:27
REM LEADOUT 55:26:23
